<?xml version="1.0" encoding="utf-8"?>
<!-- Generator: Adobe Illustrator 24.1.3, SVG Export Plug-In . SVG Version: 6.00 Build 0)  -->
<svg version="1.1" id="Layer_1" xmlns="http://www.w3.org/2000/svg" xmlns:xlink="http://www.w3.org/1999/xlink" x="0px" y="0px"
	 width="595.2802734px" height="841.8895874px" viewBox="0 0 595.2802734 841.8895874"
	 enable-background="new 0 0 595.2802734 841.8895874" xml:space="preserve">
<g>
	<path fill="#000001" d="M549.5322876,278.9327087c0,13.5591125,0,27.1182251,0,40.6773376
		c-2.9063721,15.5302429-8.3022461,29.6537476-17.8858032,42.7660828
		c-8.4710693,11.5845642-6.1605835,26.605011-3.194519,39.3695679
		c11.8279419,50.8730774,2.7542114,100.7004089-5.071106,150.7260437
		c-4.6016235,29.4073486-10.0866089,58.6705933-13.6618347,88.2382813
		c-2.3172302,19.1668091-6.8093872,37.6651611-18.0047607,53.9055786
		c-9.8683472,16.7369995-24.9335327,23.3972778-43.8688049,23.0464478c-11.801178-0.2119141-23.6155701,0-35.4204712-0.0132446
		c-34.1689453-0.0264282-42.842041-5.8195801-55.944519-37.2611084c-5.8890686-14.0821533-8.500885-28.7734375-8.4313965-44.053894
		c0.0332031-7.0374756-1.3538818-14.585144-10.3479614-14.1482544c-9.0968323,0.4501953-6.802948,8.8188477-7.0280457,14.3933716
		c-0.6253967,15.5715942,0.976593,31.2825317-3.4690857,46.5829468
		c-1.2976074,40.8759766-35.6587524,55.9841919-64.7399902,63.0817261
		c-31.3256073,7.6466675-61.7244263-0.9403076-89.7446594-15.3204346
		c-12.9767456-6.6538086-19.2861328-20.0274658-20.8817139-34.8973999
		c-0.2762604-20.874939-4.0467072-41.4851074-4.6955109-62.3600464
		c-0.2979584-9.5337524-3.5189362-18.6633911-15.7855072-17.5644531
		c-23.40065,2.0921631-43.7393112-4.2904053-59.8326111-21.4311523
		c-16.3197441-17.3841553-20.8366203-40.2122803-23.0647202-62.4577026
		c-5.172123-51.6940613-1.8321762-103.5535889,0.8640518-155.3205566c0.64711-12.4072571,0.3311806-24.8209534,0.6176186-37.2261963
		c0.8406639-36.2665405,15.5072136-64.7450562,55.9245338-70.875824c4.4426422-0.6738892,8.7476578-2.2280884,13.18013-3.0870667
		c28.1890488-5.4585571,28.6012344-5.3873596,32.7110062-33.3631897
		c4.7568665-32.3815155,15.068573-63.5847626,33.2255707-89.8290863
		c19.0098724-27.4738007,45.6463928-48.6948166,82.6061401-48.1799088
		c35.5031738,0.4949036,71.6917419-5.0534821,106.3640747,2.3172531
		c55.1303101,11.7201462,100.7929688,38.924469,123.1973572,94.6751099
		c2.3735046,5.9107513,5.3958435,11.2272644,10.4272766,15.1150055
		C531.4644775,224.8949432,545.1825562,249.1925201,549.5322876,278.9327087z"/>
	<path fill-rule="evenodd" clip-rule="evenodd" fill="#D4DFF0" d="M213.3518982,169.9829254
		c18.4813995-23.0545502,39.3895264-42.1172943,71.8571777-38.4329376
		c30.567627,3.4677277,61.7973022-3.6907959,91.9842834,7.8174896c24.936554,9.507309,45.9440002,23.312851,63.733551,47.011795
		c-10.2022095,0.5030518-18.8952942,1.8552246-27.4324341,1.1949005
		c-38.4892273-2.9741821-76.2733765,0.6850739-113.7199097,9.8449249
		c-22.1792908,5.4239807-36.8837891,19.8651123-39.9820557,40.9586792
		c-5.5019531,37.5126343-4.8531494,75.1543884,13.3008118,110.4226379
		c19.2528992,37.4034729,53.7530212,47.7399292,91.2592163,50.0887146
		c35.7448425,2.2392883,70.4568481-7.3127747,104.7454529-16.406189
		c20.1003418-5.3311157,19.8156128-6.4022827,19.2396851,15.1597595
		c1.9992981,30.4649353-6.2832947,59.0909119-15.588562,87.5498047
		c-9.4839172,28.9985352-31.3388367,43.8155518-59.6685486,48.5229492
		c-31.0774536,5.1640015-62.5518799,8.6730957-93.6557922-1.7280884
		c-6.3093872-2.1118774-13.3672485-3.4162598-19.9746094-3.1416626
		c-36.5326233,1.52948-52.6472778-23.3277588-65.8423309-51.0449524
		c-20.9162598-43.9464111-27.7588654-91.3205872-31.0527191-139.2608337
		c-1.2711639-18.5180054-2.7524872-37.0655212-4.1426392-55.5455627
		C195.4810028,244.0119171,203.4690094,206.9925079,213.3518982,169.9829254z"/>
	<path fill-rule="evenodd" clip-rule="evenodd" fill="#8394C2" d="M213.3518982,169.9829254
		c3.6050262,25.3589172-10.2720337,48.1158447-10.462204,73.1286774
		c-0.5182953,68.2704468,4.5514526,135.9866333,22.3298035,201.9794922
		c6.9581909,25.8406067,19.6898499,50.0324402,39.0054779,69.9273376c3.1382446,3.2311401,6.0480347,4.6643677,9.9476318,5.0385742
		c35.5594482,3.3962402,69.9307556,16.6973877,106.3145752,13.0259399
		c13.4035339-1.3538818,27.0650024-2.1749268,40.0149536-5.5348511
		c25.2114868-6.5510864,41.5414124-22.6260681,49.6615906-48.135498
		c8.5341187-26.8036499,11.6689758-54.6252441,18.1739502-81.7716064
		c6.3754883,44.8548889,5.9189148,89.5840149-1.5162354,134.3297729
		c-4.614502,27.763916-8.4181824,55.5821533-17.3858337,82.5084839
		c-3.5287476,10.6062622-0.5627136,22.3447266-0.0067749,33.6062622
		c1.337616,27.0917358-6.4616089,35.3411255-33.1825256,36.1289063c-5.6375427,0.1657715-11.2882996,0.0928955-16.9322815-0.0196533
		c-24.850769-0.496582-33.5835266-9.3022461-32.8221741-34.5136719c0.3047485-10.0500488,2.8768921-20.0075073,3.7175598-30.06427
		c0.5-6.0050049,5.1938171-4.8067017,8.4249573-6.2301025c17.1210632-7.5408936,31.4415283-17.6505737,39.8098755-28.6212158
		c-40.0881958,4.8331299-79.0505981,2.7874146-118.0726929-3.866394
		c-20.6003723-3.5073853-26.5853577,3.581665-29.7798767,23.8212891
		c-2.8433533,17.9882202-3.1711426,35.8441772-2.3369141,53.8920288
		c1.3504944,29.3161621-13.4401245,46.682312-43.0474396,49.9727783c-9.4676514,1.0525513-19.057663,0.668457-28.5236053-2.0060425
		c-15.2573853-4.3168945-23.9616547-10.010376-26.5504303-29.5216064
		c-15.1248474-113.9663086-12.9201355-228.16922-11.8974457-342.6572266
		c0.3708496-41.4122314,10.3862762-80.0451813,17.053299-119.713028
		C197.8894348,199.2116241,207.1333466,184.8515015,213.3518982,169.9829254z"/>
	<path fill-rule="evenodd" clip-rule="evenodd" fill="#8293C0" d="M142.3865814,346.7312927
		c-1.7311554,72.8157959-2.2806396,145.618042,4.3565521,218.2568665
		c0.7976074,8.7293701-1.7396393,11.6191406-10.8578033,11.9469604
		c-30.4171371,1.0921631-43.1172791-10.3781738-48.0561829-40.6044312
		c-9.9591599-60.9532776-2.4711456-121.5967407,1.1935425-182.346283c0.0908432-1.4962463,1.5077744-2.9131775,2.3070831-4.3663635
		C108.4013596,349.5916138,125.0505905,342.0805359,142.3865814,346.7312927z"/>
	<path fill-rule="evenodd" clip-rule="evenodd" fill="#4A646E" d="M515.8365479,282.1716614
		c5.8162231,21.730835-4.1744995,45.0389404-28.3398743,56.6495972
		c-40.6773071,19.5491943-83.4101868,31.0228882-129.1555786,20.9976501
		c-24.1985779-5.3033142-43.3589478-19.653595-58.3546448-38.2458496
		c-17.8756409-22.1593018-11.5001526-72.5029144,9.4011841-89.425354
		c7.852417,5.8395691,9.4808655,14.8682404,12.1225586,23.4257355
		c10.7584534,34.8807831,30.1869507,48.7246552,66.9016113,49.4114227
		c23.6559143,0.4420166,46.9206238-3.6314697,70.4504089-4.5284119
		C479.3069763,299.6767883,498.1263428,292.2731934,515.8365479,282.1716614z"/>
	<path fill-rule="evenodd" clip-rule="evenodd" fill="#98C7DC" d="M515.8365479,282.1716614
		c-8.3222351,15.3516235-24.0229797,18.5810547-38.6413879,20.4810181
		c-31.190033,4.0552063-62.5952759,6.7778625-94.1724243,6.4585571
		c-33.4808044-0.339325-55.0770874-16.1777039-64.6243591-48.044342
		c-2.8996277-9.6713562-6.0016174-19.2810364-9.0107422-28.9191895
		c33.9838867-7.0822601,67.7063904-17.170578,102.8587036-14.5157013
		c26.3633118,1.9911499,52.0517273,8.3934174,74.5683289,23.1077728
		C501.7412109,250.4952087,512.986084,263.5875549,515.8365479,282.1716614z"/>
	<path fill-rule="evenodd" clip-rule="evenodd" fill="#D3DDEE" d="M142.3865814,346.7312927
		c-14.5306091,5.6541748-31.0706863,0.8044128-45.3165665,9.0307312c-4.0551834,2.34198-4.4921265-3.3565674-5.740242-6.1473694
		c0.4023666-3.8762207,0.6372757-7.7808838,1.2348938-11.6306763c4.6012802-29.6289978,19.8271408-39.6644592,48.9714203-33.2425232
		c6.7049866,1.478302,4.1246796,5.6161804,3.9226532,8.736145
		C144.7353668,324.5821533,143.4560547,335.6484375,142.3865814,346.7312927z"/>
	<path fill-rule="evenodd" clip-rule="evenodd" fill="#FBFDFC" d="M444.2173767,272.1497803
		c-13.542511,3.2290955-31.1303711-5.6456604-49.836853-4.0667114c-10.9804993,0.9267578-24.3013-4.0470581-23.4735107-18.2681885
		c0.7115173-12.1787872,9.2025757-19.3471527,23.3972473-20.7938995
		c23.2850647-2.3718262,45.1498108,3.4280701,67.2958679,8.0161438c6.4849854,1.3423462,12.2910156,5.2897339,17.217041,10.2601624
		c4.6873779,4.732132,7.85849,9.5618744,5.2965088,16.4641571c-2.5491028,6.8605652-7.5741272,8.9693298-14.611969,8.4876709
		C462.7651978,271.7887573,455.9690552,272.1497803,444.2173767,272.1497803z"/>
</g>
</svg>
